# xmcd CD database file
#
# Track frame offsets:
#	150
#	19867
#	34762
#	43630
#	62305
#	81373
#	98581
#	121045
#	140957
#	161111
#
# Disc length: 2384 seconds
#
# Revision: 0
# Processed by: cddbd v1.5.2PL0 Copyright (c) Steve Scherf et al.
# Submitted via: CDex 1.70beta2
#
DISCID=7d094e0a
DTITLE=Natsuki Kayukawa - KOSAMOTA DE CHARLIE
DYEAR=2005
DGENRE=Jazz
TTITLE0=ティダ/太陽　～Yardbird Suite～
TTITLE1=ムーチョ ～Moose The Mooche～
TTITLE2=ドナドナリ ～Donna Lee～
TTITLE3=ちぇるりるりん
TTITLE4=アンソニー ～Anthropology～
TTITLE5=Ti Ti ～CHI CHI～
TTITLE6=鬼ころし ～Ornithology～
TTITLE7=あっぷるぷるぷる ～Scrapple From The Apple～
TTITLE8=小靴 ～My Little Suede Shoes～
TTITLE9=サントラ
EXTD=YEAR: 2005
EXTT0=
EXTT1=
EXTT2=
EXTT3=
EXTT4=
EXTT5=
EXTT6=
EXTT7=
EXTT8=
EXTT9=
PLAYORDER=
